<?xml version="1.0" encoding="UTF-8"?>
<svg width="27px" height="27px" viewBox="0 0 27 27" version="1.1" xmlns="http://www.w3.org/2000/svg" xmlns:xlink="http://www.w3.org/1999/xlink">
    <title>资源 1</title>
    <defs>
        <radialGradient cx="24.0020771%" cy="26.0014398%" fx="24.0020771%" fy="26.0014398%" r="106.475074%" gradientTransform="translate(0.240021,0.260014),scale(0.991150,1.000000),translate(-0.240021,-0.260014)" id="radialGradient-1">
            <stop stop-color="#E4F1EF" offset="0%"></stop>
            <stop stop-color="#6CBCB9" offset="23%"></stop>
            <stop stop-color="#147370" offset="58%"></stop>
        </radialGradient>
    </defs>
    <g id="页面-1" stroke="none" stroke-width="1" fill="none" fill-rule="evenodd">
        <g id="画板" transform="translate(-17.000000, -14.000000)">
            <g id="资源-1" transform="translate(17.000000, 14.000000)">
                <path d="M24.1245888,8.9988871 L23.9552837,8.65967368 L25.1404194,7.64620409 L25.1404194,7.64620409 C25.2542146,7.53359635 25.3111123,7.47659738 25.3111123,7.3681603 L25.5359272,7.25555257 L25.8134766,8.04797735 L25.5872738,8.16058509 L25.5872738,8.10497633 C25.5872738,8.04797735 25.5303762,8.04797735 25.5303762,7.99097838 L25.4179687,7.99097838 C25.4183539,8.00621045 25.4124831,8.0209336 25.4017281,8.03170776 C25.3909731,8.04248191 25.3762761,8.04836316 25.3610711,8.04797735 L25.3610711,8.04797735 L25.1404194,8.20229166 L25.3111123,8.712502 L25.5886616,8.712502 L25.6455592,8.65550302 L25.6455592,8.65550302 C25.7024568,8.65550302 25.7579667,8.65550302 25.7579667,8.59850405 C25.7579667,8.54150507 25.7579667,8.54150507 25.7024568,8.42889734 L25.9272718,8.37189836 L26.2048211,9.05171542 L25.9786184,9.10732418 C25.9217208,8.99471644 25.8093133,8.93771747 25.5831106,8.99471644 L24.1245888,8.99471644 L24.1245888,8.9988871 Z M24.463199,8.72084331 L25.0849095,8.72084331 L24.9156044,8.38023968 L24.463199,8.72084331 Z M25.0280119,11.1537264 L25.0280119,10.9827295 C25.0849095,10.9257305 25.197317,10.9257305 25.3055613,10.8701218 L26.0396793,10.6435161 C26.2089844,10.6435161 26.265882,10.5865171 26.3172286,10.6435161 C26.3781001,10.646887 26.4269123,10.6951899 26.4310238,10.7561238 L26.6572266,10.6991248 L26.4879215,10.077697 L26.2617187,10.1333057 L26.2617187,10.3029125 C26.1924873,10.3828603 26.0894979,10.4251611 25.9841694,10.4169104 L25.0807463,10.6435161 L26.3297183,9.51048766 L26.2742085,9.17127425 L24.9738898,9.51048766 C24.865227,9.54922226 24.7506121,9.56851563 24.6352796,9.56748664 C24.6046076,9.53713835 24.5846348,9.49760959 24.578382,9.45487891 L24.3008326,9.51048766 L24.5270354,10.1333057 L24.6963405,10.077697 C24.6963405,9.96369903 24.6963405,9.90670006 24.7518503,9.90670006 C24.7518503,9.8510913 24.8656456,9.79409232 25.0293997,9.79409232 L25.5345395,9.62170518 L24.5742187,10.5267377 L24.8004215,11.2065548 L25.0280119,11.1537264 Z M1.69443873,14.2622559 C1.75133635,14.3192549 1.69443873,14.3762539 1.69443873,14.4318627 C1.603126,14.4563319 1.51044746,14.4753648 1.41688939,14.4888616 L0.625873766,14.5458606 C0.541330248,14.600276 0.432867942,14.600276 0.348324424,14.5458606 C0.292814556,14.5458606 0.292814556,14.4888616 0.292814556,14.4318627 L0.0568976151,14.4318627 L0.226202714,15.9041045 L0.903423109,16.0737112 L0.960320724,15.9041045 C0.808132636,15.8445419 0.672480552,15.7491779 0.564812911,15.6260607 C0.470699235,15.5267032 0.394200387,15.4119856 0.338610197,15.2868473 C0.338610197,15.1742396 0.338610197,15.1172406 0.395507812,15.1172406 C0.395507812,15.0602416 0.507915296,15.0602416 0.564812911,15.0602416 L1.01721834,15.0032426 L1.07411595,15.0602416 C1.07411595,15.1172406 1.01721834,15.1742396 1.01721834,15.2298483 C0.941351174,15.2999759 0.842841905,15.3404367 0.739668997,15.3438463 L0.796566612,15.513453 L1.64447985,15.399455 L1.64447985,15.2298483 L1.36693051,15.2298483 C1.36693051,15.1742396 1.31003289,15.1172406 1.31003289,15.0602416 L1.31003289,14.9476339 L1.58758224,14.9476339 C1.64447985,14.8906349 1.75688734,14.8906349 1.75688734,14.9476339 C1.81378495,14.9476339 1.81378495,15.0032426 1.81378495,15.1172406 C1.85069365,15.232876 1.8294958,15.3592538 1.75688734,15.456454 C1.68190052,15.5828466 1.58833413,15.697201 1.47933799,15.7956674 L1.59313322,15.9666643 L2.15794613,15.6260607 L1.98864104,14.2122081 L1.69443873,14.2622559 Z M1.41688939,12.338193 L1.35582854,12.5119703 C1.47002912,12.5560447 1.56724551,12.6354172 1.63337788,12.738576 C1.68265777,12.8223317 1.70222042,12.9203192 1.68888775,13.0166198 L1.68888775,13.0166198 L0.616159539,12.9596208 C0.446854441,12.9596208 0.389956826,12.9596208 0.338610197,12.9026218 C0.283100329,12.9026218 0.283100329,12.8456229 0.283100329,12.7900141 L0.0568976151,12.7344053 L0,13.6394379 L0.226202714,13.6394379 C0.221828114,13.5784906 0.240117703,13.5180769 0.277549342,13.4698312 C0.388627514,13.4416439 0.501911618,13.4230397 0.616159539,13.4142224 L1.68888775,13.4698312 L1.68888775,13.5268301 C1.68888775,13.6394379 1.63337788,13.6964368 1.57648026,13.8048739 C1.47994593,13.8843818 1.36862888,13.9439196 1.24897204,13.9800415 L1.30448191,14.1496482 L1.92619243,13.9800415 L1.98309005,12.5647986 L1.41688939,12.338193 Z M2.1510074,11.6027671 L2.09410979,11.9989795 L0.567588405,12.2255852 L0.567588405,12.2255852 C0.398283306,12.2255852 0.290039062,12.281194 0.290039062,12.3951919 L0.0124897204,12.338193 L0.181794819,11.4887692 L0.407997533,11.5457682 L0.407997533,11.7153749 C0.464895148,11.7153749 0.464895148,11.7723739 0.520405016,11.7723739 L0.577302632,11.7723739 L0.854851974,11.7153749 L0.967259457,11.2065548 L0.741056743,11.0925568 L0.685546875,11.0925568 C0.654117719,11.0610904 0.6031808,11.0610904 0.571751645,11.0925568 C0.51485403,11.0925568 0.51485403,11.1495558 0.51485403,11.2065548 L0.237304687,11.2065548 L0.406609786,10.4711289 L0.6328125,10.5267377 C0.643633879,10.6720652 0.729391588,10.8011945 0.859015214,10.8673413 L0.914525082,10.8673413 L2.1510074,11.6027671 Z M1.69860197,11.6583759 L1.18652344,11.3191625 L1.12962582,11.7153749 L1.69860197,11.6583759 Z M2.20790502,9.33810052 L2.09410979,9.45209847 C2.1886814,9.55108867 2.26523635,9.66589042 2.3203125,9.79131189 C2.32326589,9.88717128 2.30378027,9.98239244 2.26341488,10.0693557 L2.26341488,10.0693557 L1.24897204,9.73153247 C1.13517681,9.67592372 1.02276933,9.67592372 1.02276933,9.61892474 C0.97848342,9.5757919 0.955605385,9.51518442 0.960320724,9.45348869 L0.73411801,9.33949074 L0.456568668,10.1889145 L0.682771382,10.2459135 L0.795178865,10.1319155 C0.910511361,10.1308865 1.02512627,10.1501799 1.13378906,10.1889145 L2.1510074,10.5281279 L2.1510074,10.5281279 C2.10788005,10.6430345 2.02844669,10.7406724 1.92480469,10.8061717 C1.81378464,10.8349087 1.70049299,10.8539793 1.58619449,10.8631707 L1.58619449,11.0883861 L2.20790502,11.0883861 L2.71165707,9.73153247 L2.20790502,9.33810052 Z M2.77271793,9.06005673 L3.11132813,8.72084331 C3.1613412,8.57392693 3.1613412,8.41454833 3.11132813,8.26763194 C3.06686091,8.12243904 2.96716687,8.00059564 2.83377878,7.92841853 C2.7469702,7.88798123 2.65191837,7.8684609 2.55622944,7.87141955 L2.31614926,7.87141955 C2.31614926,7.92841853 2.24676192,7.9409305 2.20374178,7.98402728 C2.14234667,8.07006868 2.06566859,8.14405583 1.97753906,8.20229166 C1.97792419,8.21752372 1.97205339,8.23224688 1.9612984,8.24302103 C1.9505434,8.25379519 1.93584643,8.25967644 1.92064145,8.25929063 C1.75133635,8.48589632 1.64309211,8.53733442 1.52513363,8.48589632 C1.46430803,8.48177748 1.41609105,8.43287828 1.41272615,8.37189836 C1.35582854,8.25929063 1.41272615,8.20229166 1.41272615,8.09385458 C1.47771771,7.98968149 1.57531345,7.90999927 1.69027549,7.86724889 C1.85290396,7.80233467 2.02483604,7.76385089 2.19957854,7.75325094 L2.19957854,7.58364423 L1.46407278,7.41403753 L1.40856291,7.58364423 L1.52652138,7.64620409 C1.44161831,7.68875905 1.36500829,7.74620122 1.30031867,7.81581079 C1.2312066,7.87094806 1.19004132,7.95393441 1.18791118,8.04241648 C1.0937322,8.19489186 1.07284675,8.38166476 1.13101357,8.55123661 C1.19255096,8.71985986 1.31279245,8.86055606 1.46962377,8.947449 C1.59688306,8.99046746 1.73092818,9.00978549 1.86513158,9.00444797 C2.01274063,8.91125715 2.14598104,8.79698144 2.26063939,8.66523456 C2.27584437,8.66562037 2.29054135,8.65973911 2.30129634,8.64896496 C2.31205133,8.63819081 2.31792213,8.62346765 2.31753701,8.60823558 C2.54373972,8.3816299 2.6561472,8.26902216 2.76994243,8.3301918 C2.82684005,8.3301918 2.82684005,8.38580055 2.82684005,8.44279953 C2.88234992,8.49979851 2.82684005,8.55540726 2.82684005,8.66940521 C2.76994243,8.72640419 2.69916735,8.85291411 2.60063734,8.8960109 C2.47379103,8.94065506 2.33934279,8.9595586 2.20512952,8.95161966 L2.20512952,9.12122636 L2.77549342,9.28249176 L2.8879009,9.11149483 L2.77549342,9.05588608 L2.77271793,9.06005673 Z M21.9777447,4.24433838 L22.1470498,4.47094406 L22.7118627,5.03676316 L22.9380654,5.26336885 L22.7118627,5.43297556 L22.3732525,5.77357919 L22.2039474,5.9431859 L21.9791324,5.71658022 L21.4143195,5.09376214 L21.2436266,4.92415543 L21.4143195,4.75454872 L21.8084396,4.41394509 L21.9777447,4.24433838 Z M22.654965,3.90512496 L23.7304688,5.03676316 L22.4814967,6.16840137 C22.4818818,6.18363344 22.476011,6.19835659 22.465256,6.20913075 C22.4545011,6.2199049 22.4398041,6.22578615 22.4245991,6.22540034 C22.3690892,6.22540034 22.3690892,6.22540034 22.3121916,6.16840137 L22.1428865,5.99879466 L22.1428865,6.11696327 C22.0859889,6.17257203 22.0859889,6.229571 22.0290913,6.229571 C22.0290913,6.28656998 21.9735814,6.28656998 21.9735814,6.34356895 C22.0814698,6.4421768 22.1944983,6.53498818 22.3121916,6.62161274 L22.4814967,6.62161274 L22.5939042,6.50900501 L23.9511205,5.25780797 L24.1759354,5.03120229 L23.9511205,4.8045966 L22.8770045,3.6729584 L22.6508018,3.39491461 L22.3732525,3.62013008 L22.654965,3.90512496 Z M23.1642681,4.81015748 L22.3732525,3.96212394 L22.1470498,3.73551825 L21.926398,3.96212394 L22.1526007,4.18872962 L22.9436164,5.03676316 L23.1698191,5.26336885 L23.394634,5.03676316 L23.1642681,4.81015748 Z M22.2039474,5.48997453 L22.4814967,5.21193075 L21.9735814,4.70311062 L21.6960321,4.98115441 L22.2039474,5.48997453 Z M20.0002056,1.58484957 C19.9710315,1.70068213 19.932987,1.81408926 19.8864104,1.92406299 L19.8864104,2.15066868 C19.8308846,2.25689876 19.8308846,2.38365201 19.8864104,2.48988209 C19.9049301,2.62678895 19.9432645,2.7602619 20.0002056,2.88609449 C20.0527564,3.03000237 20.129237,3.16396428 20.2264083,3.28230688 C20.2928717,3.21530028 20.36858,3.15818384 20.4512233,3.11270017 C20.5081209,3.11270017 20.5081209,3.11270017 20.5650185,3.0557012 L20.3998766,2.88609449 C20.3688643,2.85599608 20.3488293,2.81634423 20.342979,2.77348675 C20.2915702,2.70573499 20.2534295,2.62884599 20.2305715,2.54688107 C20.1898298,2.43857528 20.1705051,2.32336499 20.1736739,2.20766765 C20.2133128,2.13890537 20.2330172,2.06042877 20.2305715,1.98106197 C20.2623186,1.95110505 20.2820574,1.91056848 20.2860814,1.86706402 C20.2860814,1.81145526 20.342979,1.81145526 20.342979,1.75445628 L20.0043688,1.58484957 L20.0002056,1.58484957 Z M18.2488692,2.83604661 C18.3043791,2.77904763 18.4181743,2.77904763 18.475072,2.72204865 C18.5779622,2.7185363 18.6762882,2.67864332 18.7526213,2.60944092 L19.0912315,2.43983421 C19.1531097,2.41065407 19.2101976,2.37221518 19.2605366,2.32583626 L19.3174342,2.26883729 C19.3729823,2.39441537 19.4494772,2.50959719 19.5436369,2.60944092 C19.5142375,2.64115201 19.4742356,2.66094122 19.4312294,2.66504968 L18.8664165,2.94309346 C18.7461876,2.95508284 18.630088,2.99353519 18.5264186,3.0557012 C18.8039679,3.22669812 19.1481291,3.33374498 19.4312294,3.50891257 C19.4312294,3.33930586 19.4312294,3.28230688 19.3743318,3.23086878 L19.3743318,3.05848163 L19.712942,3.05848163 C19.7692683,3.37670586 19.8072629,3.69791429 19.8267373,4.02051313 C19.737424,4.05273362 19.6439522,4.07192947 19.5491879,4.07751211 L19.4367804,4.13451108 L19.4367804,4.01773269 C19.4922903,3.96212394 19.4367804,3.90512496 19.4367804,3.79251723 C19.2179352,3.68274873 18.9910792,3.58979984 18.7581723,3.51447344 C18.4806229,3.40186571 18.3057669,3.34486673 18.250257,3.28786776 C18.1364618,3.28786776 18.0809519,3.232259 17.9727076,3.232259 C18.0089874,3.14399563 18.0282919,3.04965948 18.0296053,2.95421521 L18.0296053,2.84160748 L18.2488692,2.83604661 Z M18.3043791,2.21322853 C18.4783448,2.19739739 18.6495341,2.15907988 18.8136822,2.09923058 C18.968686,2.0560253 19.1196045,1.99927188 19.2646998,1.92962387 C19.4076023,1.82462183 19.5589186,1.73162437 19.7171053,1.65158008 C19.6141299,1.5853299 19.5348985,1.48794033 19.4909025,1.3735363 L19.4353927,1.43053527 C19.3103942,1.51746233 19.1780553,1.5932857 19.0398849,1.65714096 C18.8919987,1.7156087 18.7409605,1.76573504 18.5874794,1.8072846 C18.4609112,1.85306317 18.3262293,1.87199958 18.1919716,1.86289336 L18.2488692,1.91989233 C18.2726356,2.01144068 18.291169,2.10427277 18.3043791,2.19793612 L18.3043791,2.21322853 Z M14.1799959,2.32583626 L14.2368935,1.98662284 L14.5144428,0.344774293 L14.5713405,0 L14.9113384,0.0569989759 L16.4378598,0.335042761 L16.77647,0.392041737 L16.7195724,0.670085522 L16.442023,2.4245418 C16.442023,2.48015056 16.442023,2.53714954 16.3851254,2.53714954 C16.3851254,2.59414851 16.3296155,2.64975727 16.2158203,2.64975727 L15.8758224,2.64975727 L15.8758224,2.53714954 C15.8808906,2.47837036 15.8606987,2.42021514 15.8203125,2.37727436 L15.8203125,2.26327641 C15.8772101,2.26327641 15.9341077,2.32027539 15.9896176,2.32027539 L16.0978618,2.32027539 C16.0978618,2.26327641 16.0978618,2.26327641 16.1533717,2.20766765 L16.3795744,0.622818078 L14.853053,0.396212394 L14.7961554,0.735425811 L14.853053,0.735425811 C14.9099507,0.735425811 14.9654605,0.679817054 15.0223581,0.679817054 C15.0925606,0.733599835 15.1344545,0.816513286 15.1361534,0.90503252 C15.1790944,0.859687672 15.1994678,0.797438214 15.1916632,0.735425811 C15.1960027,0.692111307 15.2162863,0.651967374 15.2485609,0.622818078 L15.2485609,0.508820126 C15.3472857,0.580327251 15.4653751,0.620083746 15.5871711,0.622818078 C15.5871711,0.679817054 15.5316612,0.679817054 15.5316612,0.735425811 L15.5316612,0.792424787 L15.4747636,0.962031496 C15.5316612,0.90503252 15.6440687,0.90503252 15.6440687,0.849423763 L15.7009663,0.849423763 C15.7564762,0.90503252 15.8133738,0.962031496 15.8133738,1.01903047 C15.8537392,0.932067244 15.8732248,0.836846084 15.8702714,0.740986687 L15.927169,0.68537793 C16.0395765,0.740986687 16.151984,0.740986687 16.2657792,0.797985663 C16.2505742,0.797599854 16.2358772,0.803481109 16.2251222,0.814255261 C16.2143673,0.825029414 16.2084965,0.839752571 16.2088816,0.854984639 L16.151984,1.02459135 C16.151984,1.13719908 16.0964741,1.19419806 16.0964741,1.25119703 L15.9826789,1.42080374 C16.0494421,1.54561005 16.1078561,1.67472122 16.157535,1.8072846 L16.157535,1.86289336 C16.1020251,1.91989233 15.9882299,1.97689131 15.8799856,2.08949904 L15.8799856,1.92406299 L15.8203125,1.75445628 C15.7532559,1.85364762 15.6775591,1.9466926 15.5941098,2.03250007 C15.5385999,2.08810882 15.4817023,2.1451078 15.4248047,2.1451078 L15.3679071,2.08810882 C15.3123972,2.03250007 15.2554996,2.03250007 15.198602,1.91850212 C15.2837312,1.876315 15.3604036,1.81882607 15.4248047,1.74889541 C15.4680033,1.66670949 15.5247778,1.59244215 15.592722,1.52924082 L15.6496197,1.41663308 C15.6496197,1.30263513 15.592722,1.24702638 15.592722,1.1900274 C15.592722,1.13302842 15.5372122,1.07602945 15.4803146,0.963421715 C15.4234169,1.07602945 15.3665193,1.13302842 15.3665193,1.1900274 L15.3110095,1.24702638 C15.3665193,1.35963411 15.4234169,1.52507016 15.4803146,1.64323877 L15.1417044,1.8072846 L15.1417044,1.58484957 C15.0848067,1.64184855 15.0848067,1.69745731 15.0279091,1.69745731 C15.0279091,1.75445628 14.9155016,1.81145526 14.8017064,1.92406299 C14.8020806,1.90907526 14.7963978,1.89457115 14.7859469,1.88383985 C14.7754959,1.87310854 14.7611623,1.86705933 14.7461965,1.86706402 C14.7461965,1.81145526 14.6892989,1.75445628 14.6324013,1.69745731 L14.5713405,2.03806094 L14.5158306,2.37727436 L14.1799959,2.32583626 Z M14.6324013,1.64740943 C14.7461965,1.59041045 14.8017064,1.53341147 14.8017064,1.4764125 C14.8719332,1.41281747 14.9293966,1.33637769 14.9710115,1.25119703 C14.9249373,1.14069633 14.8873587,1.02683035 14.858604,0.910593396 L14.8017064,0.797985663 L14.6324013,1.64740943 Z M11.5793586,1.59041045 L12.1441715,1.4764125 L12.0872738,1.19836871 L11.5224609,1.31097645 L11.5793586,1.59041045 Z M11.4655633,1.02459135 L12.0872738,0.910593396 L12.0303762,0.571379978 L11.4100535,0.68537793 L11.4655633,1.02459135 Z M10.7314453,1.76001716 L11.2407484,1.64184855 L11.1838507,1.36380477 L10.6745477,1.42080374 L10.7314453,1.76001716 Z M10.1694079,0.565819102 L10.4469572,0.508820126 L11.0117701,0.453211369 L11.0117701,0.278043785 L10.963199,0.0569989759 L11.2990337,0 L11.3559313,0.226605685 L11.3559313,0.396212394 L12.0900493,0.278043785 L12.3162521,0.221044809 L12.3162521,0.453211369 L12.4897204,1.52924082 L12.546618,1.8072846 L12.2080078,1.86289336 L12.2080078,1.8072846 L11.6418072,1.86289336 L11.6987048,2.14093714 L11.6987048,2.19793612 C11.6987048,2.25354488 11.7556024,2.25354488 11.8125,2.25354488 L12.1511102,2.19793612 C12.2295579,2.19428563 12.306477,2.17490342 12.3773129,2.14093714 C12.4328228,2.14093714 12.4897204,2.08393817 12.546618,2.08393817 L12.546618,1.8072846 C12.6724846,1.86334161 12.8056434,1.90125415 12.9421258,1.91989233 C12.8852282,2.08949904 12.8852282,2.25910575 12.8283306,2.25910575 C12.8249657,2.32008566 12.7767487,2.36898487 12.7159231,2.3731037 C12.7159231,2.43010268 12.6590255,2.43010268 12.546618,2.43010268 C12.4897204,2.48571144 12.3204153,2.48571144 12.1511102,2.48571144 C12.0238729,2.52882204 11.8898106,2.54814254 11.7556024,2.54271041 C11.6418072,2.59970939 11.5862973,2.59970939 11.5293997,2.54271041 C11.4866184,2.53684973 11.4470371,2.51677905 11.4169922,2.48571144 C11.4169922,2.43010268 11.3600946,2.3731037 11.3600946,2.31610473 L11.303197,1.91989233 L10.7952817,2.03389029 L10.7952817,2.03389029 L10.4566715,2.08949904 L10.3997738,1.86289336 L10.2263055,0.792424787 L10.1694079,0.565819102 Z M10.6218133,1.1316382 L11.1297286,1.07463923 L11.072831,0.735425811 L10.5649157,0.849423763 L10.6218133,1.1316382 Z M6.66118421,2.6594888 L6.6042866,2.48988209 L6.54738898,2.32027539 L8.07391036,1.5278506 L8.18770559,1.69745731 L8.24460321,1.81145526 L8.5832134,1.64184855 L8.47496916,1.52924082 L8.36117393,1.25119703 L8.24876645,1.0802001 L8.02256373,1.25119703 L7.28844572,1.58484957 C7.30341148,1.58485426 7.31774509,1.57880505 7.32819604,1.56807374 C7.33864698,1.55734244 7.34432974,1.54283833 7.34395559,1.5278506 C7.28844572,1.47085162 7.17465049,1.47085162 7.00534539,1.41524287 C6.94844778,1.5278506 6.89293791,1.58484957 6.89293791,1.64184855 L6.8360403,1.69745731 C6.89293791,1.69745731 6.94844778,1.75445628 7.00534539,1.75445628 L6.38363487,2.0936697 L6.10608553,2.20766765 L6.16298314,2.37727436 L6.33228824,2.65531815 L6.38363487,2.78043785 L6.66118421,2.6594888 Z M7.50909745,3.39630483 C7.62150493,3.22669812 7.73391242,3.0557012 7.78664679,2.94309346 L7.72974918,2.88609449 C7.65092205,3.02727615 7.55792424,3.16003412 7.45219984,3.28230688 C7.36322091,3.44989361 7.2490126,3.60275524 7.11358964,3.73551825 L6.99979441,3.6215203 C6.94882171,3.57633133 6.89184498,3.53843512 6.83048931,3.50891257 C6.88738692,3.45191359 7.01367188,3.38240264 7.05669202,3.33930586 L7.28289474,3.11270017 L7.45775082,2.78043785 L7.45775082,2.78043785 L6.94844778,3.28925798 L6.8360403,3.17665024 C6.78394815,3.12876523 6.72501358,3.08893695 6.66118421,3.05848163 C6.71808183,3.05848163 6.83048931,2.9458739 6.93873355,2.88887493 C7.08479466,2.75138691 7.2172466,2.60007615 7.33424137,2.43705377 L6.99563117,2.60666048 L6.82632607,2.71926822 L6.65702097,2.44122443 L6.88322368,2.38422546 L7.91015625,1.8072846 L8.13497122,1.69328665 L8.24876645,1.97133044 L8.02256373,2.08393817 L7.68395354,2.25354488 L7.79636102,2.25354488 C7.75243111,2.35330979 7.69550076,2.44680449 7.62705592,2.53158866 C7.7394634,2.53158866 7.79636102,2.58858764 7.85325863,2.58858764 L7.91015625,2.64419639 C7.97314855,2.48791517 8.04831888,2.33684184 8.13497122,2.19237524 L8.18770559,2.03806094 C8.21861805,2.06846328 8.25855511,2.08797948 8.30150082,2.0936697 C8.37960923,2.09660121 8.45621911,2.11602467 8.52631579,2.15066868 L8.35701069,2.48988209 L8.52631579,2.6594888 L8.86631373,2.83048573 L9.31733141,2.83048573 C9.32474042,2.89245947 9.304421,2.95454412 9.26182155,3.00009244 L9.26182155,3.22669812 C9.08953501,3.20103507 8.9193243,3.16293659 8.7525185,3.11270017 C8.64011102,3.11270017 8.5832134,3.0557012 8.47496916,3.00009244 C8.36672492,2.94448368 8.30566406,2.83048573 8.19741982,2.72204865 L8.1405222,2.83604661 C8.1405222,2.89165536 8.19741982,2.89165536 8.19741982,2.94865434 C8.22819536,3.00969181 8.26641972,3.06666351 8.31121505,3.11826105 C8.36672492,3.232259 8.36672492,3.28786776 8.42362253,3.34486673 L8.42362253,3.57147242 C8.36672492,3.68408015 8.25431743,3.74107913 8.08501234,3.8495162 C8.02811472,3.73690847 7.97121711,3.67990949 7.91570724,3.67990949 L7.80191201,3.62291052 C7.97121711,3.56730176 8.02811472,3.51030278 8.02811472,3.45330381 C8.08501234,3.45330381 8.08501234,3.39769505 8.02811472,3.34069608 L8.02811472,3.22808834 L7.97121711,3.17108937 C7.90577254,3.30861998 7.83016114,3.44105948 7.74501439,3.56730176 C7.68950452,3.67990949 7.57570929,3.79390745 7.52019942,3.90651518 L7.24265008,4.18455896 C7.18575247,4.12755999 7.1302426,4.07056101 7.07334498,4.07056101 L6.95954975,4.01356204 C7.18575247,3.78834657 7.41195518,3.61734964 7.52575041,3.39213418 L7.50909745,3.39630483 Z M4.57956414,6.22540034 L5.70918997,5.03676316 L4.4088713,3.79251723 L3.27924548,4.98115441 L4.57956414,6.22540034 Z M2.8254523,5.03676316 L2.9947574,4.81015748 L4.24372944,3.55896045 L4.40609581,3.33652542 L4.63229852,3.5631311 L5.93261719,4.81432814 L6.1588199,4.98532506 L5.93261719,5.26336885 L5.93261719,5.20636987 L4.74609375,6.39500705 L4.80160362,6.45200603 L4.57956414,6.67305084 L4.35336143,6.44644515 L2.99753289,5.19524812 L2.8254523,5.03676316 Z M4.23679071,5.88618693 L4.46299342,5.71658022 L4.68919613,5.43853643 L4.41164679,5.21193075 L4.24234169,5.38292768 L4.06748561,5.54697351 L3.84128289,5.3773668 L4.01058799,5.20636987 L4.23679071,4.98115441 L4.01058799,4.81015748 L3.78577303,5.03676316 L3.61646793,5.26336885 L3.39026521,5.03676316 L3.55957031,4.86576624 L4.29368832,4.13034043 L4.46299342,3.96073372 L4.68919613,4.13034043 L4.51989104,4.29994713 L4.24234169,4.57799092 L4.46854441,4.74759763 L4.69474712,4.52099194 L4.80715461,4.35138523 L5.02780633,4.58772245 L4.85711349,4.69754975 L5.19572368,4.69754975 L5.19572368,4.92415543 L5.36641653,4.75454872 L5.53572163,4.92415543 L5.36641653,5.09376214 L4.63091077,5.88618693 L4.46160567,6.05579364 L4.23679071,5.88618693 Z M4.91539885,5.20636987 L4.63784951,4.92832609 L4.80715461,4.81432814 C4.81479301,4.87674491 4.7944703,4.93934857 4.75164474,4.98532506 L5.09025493,4.98532506 L4.91539885,5.20636987 Z M24.9711143,12.1685862 L24.8018092,11.3191625 L25.0280119,11.2635537 C25.0280119,11.3761615 25.0849095,11.3761615 25.1404194,11.4331604 L25.4179687,11.4331604 L26.1576377,11.2607733 C26.2511821,11.2471975 26.343856,11.2281655 26.4351871,11.2037743 C26.4351871,11.1467753 26.4920847,11.0897764 26.4351871,11.0341676 L26.7127364,10.9771686 L26.8265317,11.8265924 L26.6003289,11.8822011 C26.6003289,11.7695934 26.5434313,11.7695934 26.4879215,11.7125944 L26.2103721,11.7125944 L25.4762541,11.8822011 C25.3827098,11.8957769 25.2900359,11.9148089 25.1987048,11.9392001 C25.1987048,11.9961991 25.1418072,12.0518079 25.1987048,12.1088068 L24.9711143,12.1685862 Z M25.3111123,14.2622559 C25.3111123,14.1496482 25.3111123,14.0926492 25.3666221,14.0926492 C25.4235197,14.0356503 25.4804174,14.0356503 25.6441715,14.0356503 L26.3782895,13.9800415 L26.7168997,13.9800415 C26.7168997,14.0356503 26.7737973,14.0926492 26.7737973,14.1496482 L27,14.1496482 L26.9431024,13.3002245 L26.7168997,13.3002245 C26.7247042,13.3622369 26.7043309,13.4244863 26.6613898,13.4698312 C26.5715526,13.5001459 26.4783379,13.519289 26.3838405,13.5268301 L26.0452303,13.5268301 L25.9883326,12.9040121 L26.3269428,12.8470131 C26.4976357,12.8470131 26.6044922,12.8470131 26.6044922,12.9040121 C26.6653178,12.9081309 26.7135348,12.9570301 26.7168997,13.01801 L26.9431024,13.01801 L26.8862048,12.1685862 L26.6086554,12.1685862 C26.665553,12.281194 26.6086554,12.338193 26.6086554,12.338193 C26.5517578,12.3951919 26.4393503,12.3951919 26.2700452,12.3951919 L25.5345395,12.4508007 L25.2569901,12.4508007 C25.2000925,12.3951919 25.2000925,12.3951919 25.2000925,12.281194 L24.9225432,12.281194 L24.978053,13.1876167 L25.2042558,13.1306177 C25.2042558,13.0736188 25.2611534,13.01801 25.318051,12.961011 C25.4621156,12.907934 25.6163592,12.8884409 25.7690687,12.9040121 L25.8259663,13.5838291 L25.5997636,13.5838291 C25.5034404,13.5979198 25.4052336,13.5777516 25.3222142,13.5268301 C25.2653166,13.5268301 25.2653166,13.4698312 25.2653166,13.4142224 L25.0391139,13.4142224 L25.0960115,14.2622559 L25.3111123,14.2622559 Z M25.0849095,14.5972987 L24.9711143,14.54169 L25.0280119,14.427692 L25.7621299,14.2580853 L25.7621299,14.427692 C25.6135287,14.4690894 25.4775869,14.5469771 25.3666221,14.6542977 C25.2542146,14.7682956 25.197317,14.8239044 25.197317,14.9323415 C25.1935121,15.0828001 25.2553244,15.227455 25.3666221,15.3285539 C25.5286323,15.4508478 25.7289865,15.5110118 25.931435,15.4981606 C26.1033106,15.5146314 26.2767282,15.4952232 26.4407381,15.4411616 C26.5807784,15.3498697 26.6802127,15.2079234 26.7182874,15.0449492 C26.7182874,14.9323415 26.6489001,14.8614403 26.6058799,14.7669054 C26.5314187,14.6397339 26.4377988,14.5248453 26.3283306,14.4263018 L26.4421258,14.2566951 C26.6278877,14.3417704 26.7846888,14.4795178 26.8931435,14.6529075 C26.9751958,14.809846 26.9954991,14.9919089 26.9500411,15.1631178 C26.9561595,15.416001 26.8270629,15.652923 26.6114309,15.7845457 C26.4093439,15.9583431 26.1352089,16.022197 25.8773129,15.9555426 C25.6078352,15.9487321 25.3485957,15.8507316 25.1418072,15.6774988 C24.9763586,15.493025 24.9129436,15.2383923 24.9725021,14.9976818 L24.9725021,14.7724663 C25.0293997,14.7154673 25.0862973,14.6584683 25.0862973,14.6014694 L25.0849095,14.5972987 Z M24.3494038,18.1632103 C24.4063014,18.1076015 24.4063014,18.0506025 24.463199,18.0506025 C24.5200966,17.9936035 24.6325041,18.0506025 24.7407484,18.1076015 L25.4762541,18.332817 L25.7024568,18.4468149 C25.7579667,18.5038139 25.7579667,18.5594226 25.7579667,18.6734206 L25.9841694,18.7290294 L26.2617188,17.8809958 L26.035516,17.8239968 L25.9217208,17.9366046 C25.8261669,17.939693 25.7311893,17.9206636 25.6441715,17.8809958 L25.3055613,17.7669979 L25.3610711,17.7113891 C25.3651123,17.650185 25.4137711,17.6014395 25.4748664,17.5973911 C25.5588701,17.5411638 25.668412,17.5411638 25.7524157,17.5973911 L25.8093133,17.4277844 L24.9058902,17.1497407 L24.8489926,17.2637386 C24.9614001,17.3207376 25.0751953,17.3763463 25.0751953,17.4333453 C25.1307052,17.4903443 25.1307052,17.545953 25.0751953,17.659951 L25.0751953,17.71695 L24.797646,17.602952 C24.6852385,17.602952 24.6283409,17.545953 24.6283409,17.4903443 L24.6283409,17.3207376 C24.6714682,17.205831 24.7509016,17.1081931 24.8545436,17.0426938 C24.9553523,16.9310428 25.0998245,16.8690883 25.2500514,16.8730871 L25.1931538,16.7034804 L24.6283409,16.7604794 L24.1204256,18.1187232 L24.3494038,18.1632103 Z M23.6152858,19.6924511 C23.4921425,19.456613 23.5142365,19.1710387 23.6721834,18.9570253 C23.7805271,18.7357207 23.9591876,18.5567418 24.1800987,18.4482051 C24.7166066,18.3610956 25.2522717,18.6085123 25.5345395,19.0738036 C25.6007513,19.3180708 25.5811535,19.5777135 25.4790296,19.8092295 C25.3989763,20.0702955 25.1818246,20.2659199 24.9142167,20.3180496 C24.6697532,20.3825878 24.4107361,20.3630045 24.1787109,20.2624408 C23.9383569,20.1338007 23.7417192,19.9363287 23.613898,19.6952315 L23.6152858,19.6924511 Z M24.1800987,18.8444175 C24.0107936,18.8444175 23.9552837,18.9570253 23.8414885,19.0710232 C23.7845909,19.1836309 23.8414885,19.2962387 23.8983861,19.4672356 C24.0261907,19.6076071 24.1791837,19.7226742 24.3494038,19.806449 C24.5282453,19.8830903 24.7211009,19.921446 24.9156044,19.9190568 C25.0691726,19.9390317 25.2138381,19.8422182 25.2542146,19.6924511 C25.3182122,19.5611979 25.295652,19.4040971 25.197317,19.2962387 C25.1404194,19.1836309 24.9711143,19.0710232 24.7449116,18.9570253 C24.569658,18.8708087 24.3749494,18.8319893 24.1800987,18.8444175 L24.1800987,18.8444175 Z M21.8639494,21.787511 C21.908967,21.7439896 21.9711368,21.7230593 22.0332545,21.730512 C22.0901521,21.730512 22.1470498,21.787511 22.2594572,21.9001187 L22.8242701,22.4103291 C22.9380654,22.5229368 22.9935752,22.5799358 22.9935752,22.6355445 C23.0012136,22.6979613 22.9808909,22.760565 22.9380654,22.8065415 L23.1073705,22.9761482 L23.5597759,22.4659378 L23.3890831,22.3533301 C23.3442803,22.3972045 23.2819373,22.4181931 23.219778,22.4103291 C23.1642681,22.4103291 23.1073705,22.3533301 22.9935752,22.2393321 L22.3163549,21.6179043 L23.9552837,22.0141167 L24.1800987,21.787511 L23.219778,20.8810882 C23.1073705,20.7684805 23.0504729,20.7114815 23.0504729,20.6558728 C22.9935752,20.5988738 23.0504729,20.5418748 23.1073705,20.4848759 L22.9380654,20.3722681 L22.4814967,20.8282599 L22.6508018,20.9978666 C22.7076994,20.9408677 22.764597,20.8838687 22.8201069,20.8838687 C22.8876598,20.9506006 22.963719,21.0080972 23.0463096,21.0548656 L23.4529194,21.451078 L22.2039474,21.1104744 L21.6960321,21.6762935 L21.8639494,21.787511 Z M20.6149774,22.9191492 C20.6125891,22.6521086 20.7392557,22.4003959 20.9549753,22.2435028 C21.162942,22.0817058 21.4313982,22.0196832 21.6890933,22.0738961 C21.9152961,22.0738961 22.1414988,22.2435028 22.3677015,22.4701085 C22.5370066,22.6967142 22.6452508,22.9233198 22.5925164,23.2069245 C22.5823583,23.4555759 22.4571816,23.685304 22.2539062,23.8283524 C22.0410537,23.983348 21.7828073,24.0630629 21.5197882,24.0549581 C21.2480143,23.9880013 21.0080424,23.8282266 20.8411801,23.6031369 C20.6918475,23.408419 20.6126193,23.1688412 20.6163651,22.9233198 L20.6149774,22.9191492 Z M21.5184005,22.4103291 C21.6942715,22.4852509 21.8494746,22.6016222 21.9708059,22.7495425 C22.0964342,22.8917984 22.1749741,23.0695567 22.1956209,23.2583626 C22.2477965,23.400882 22.2024131,23.560849 22.0832134,23.654575 C21.9668889,23.7328365 21.8213344,23.7538132 21.6877056,23.711574 C21.5218706,23.5977912 21.3700187,23.4648007 21.2353002,23.3153616 C21.1146311,23.1699713 21.0367823,22.9937774 21.0104852,22.8065415 C20.9801281,22.7464722 20.9749219,22.6767593 20.9960189,22.6128336 C21.0171159,22.548908 21.0627761,22.4960421 21.1228927,22.4659378 C21.2353002,22.3533301 21.3490954,22.3533301 21.5184005,22.4103291 L21.5184005,22.4103291 Z M18.0726254,24.7306045 L18.2419305,24.7306045 C18.2419305,24.5609977 18.2419305,24.4525607 18.2974404,24.3900008 C18.2974404,24.2773931 18.4112356,24.2203941 18.4681332,24.1647853 L18.5236431,24.1647853 L19.0329461,25.0698179 C19.088456,25.2394246 19.1453536,25.2964236 19.1453536,25.3478617 C19.088456,25.4034704 19.088456,25.4604694 18.9760485,25.5174684 L19.088456,25.6870751 L19.8794716,25.2908627 L19.7670641,25.121256 L19.597759,25.121256 C19.5278582,25.0568257 19.4704575,24.9799979 19.4284539,24.8946503 L18.9191509,23.9326188 L18.9191509,23.9326188 C19.0329461,23.8756198 19.1453536,23.8186208 19.2577611,23.8756198 C19.3820843,23.9066403 19.4981291,23.9645288 19.597759,24.0452265 L19.7101665,23.8756198 L19.20919,23.4946998 L17.9602179,24.1745169 L18.0726254,24.7306045 Z M17.0554071,24.4525607 L17.4509149,24.3399529 L18.4112356,25.4715911 L18.4112356,25.4715911 C18.4968575,25.5712987 18.6188484,25.6324028 18.7498458,25.6411978 L18.8067434,25.8678035 L18.0157278,26.1458473 L17.9588302,25.9192416 L17.9588302,25.9192416 C18.0019783,25.9132678 18.041966,25.8932384 18.0726254,25.8622427 L18.0726254,25.7496349 L18.0726254,25.7496349 C18.0726254,25.6926359 18.0726254,25.6926359 18.0157278,25.6926359 L17.8464227,25.4660303 L17.3468339,25.6954164 L17.4037315,25.9220221 L17.4037315,25.9776308 L17.4037315,25.9776308 C17.4096947,26.0208558 17.4296885,26.0609147 17.4606291,26.0916288 L17.6243832,26.0916288 L17.7367907,26.2612355 L17.0595703,26.5392793 L16.9457751,26.3140638 C17.0595703,26.2570648 17.1150802,26.1444571 17.1150802,25.9178514 L17.1150802,25.9178514 L17.0554071,24.4525607 Z M17.3329564,24.8487731 L17.3329564,25.4145922 L17.6729544,25.3019844 L17.3329564,24.8487731 Z M14.557463,24.962771 L15.5746813,24.8487731 C15.7584541,24.7904668 15.9557215,24.7904668 16.1394942,24.8487731 C16.2664369,24.9437427 16.3483513,25.0872224 16.365697,25.2449855 C16.4032367,25.3603812 16.3825409,25.4868506 16.3101871,25.5841989 C16.2424167,25.6858791 16.1457233,25.7648247 16.0326377,25.8108046 L16.4850432,26.2070169 C16.540553,26.2640159 16.5974507,26.3210149 16.6543483,26.3210149 C16.7112459,26.3210149 16.7667558,26.3766237 16.8236534,26.3210149 L16.8236534,26.5462304 L16.3157381,26.6602283 L15.5802323,25.9248025 L15.4109272,25.9804113 L15.4678248,26.2070169 C15.4714497,26.3100652 15.5112558,26.4085271 15.5802323,26.4850607 C15.5802323,26.4850607 15.6371299,26.5406695 15.7495374,26.4850607 L15.7495374,26.7631045 L14.9030119,26.8771025 L14.8461143,26.6504968 C14.9585218,26.6504968 15.0154194,26.5934978 15.0154194,26.5364988 C15.072317,26.5364988 15.072317,26.4238911 15.0154194,26.258455 L14.9030119,25.5230292 C14.8996084,25.4196725 14.8592196,25.3209878 14.7892167,25.2449855 C14.7892167,25.2449855 14.7337068,25.1879865 14.6199116,25.2449855 L14.557463,24.962771 Z M15.4053762,25.6981968 L15.4622738,25.6981968 C15.5961466,25.6676856 15.7281928,25.6296257 15.8577817,25.5841989 C15.9029094,25.4988791 15.9226564,25.4023807 15.9146793,25.3061551 C15.9146793,25.2491561 15.8577817,25.1365484 15.800884,25.1365484 C15.6958519,25.0852678 15.5782683,25.0654747 15.4622738,25.0795494 C15.4191257,25.0855232 15.379138,25.1055526 15.3484786,25.1365484 C15.2929687,25.1921571 15.2929687,25.2491561 15.3484786,25.3631541 L15.4053762,25.6981968 Z M12.9948602,25.3019844 C12.80472,25.4946759 12.7198514,25.7678795 12.7672697,26.0346298 C12.7672697,26.3126736 12.8227796,26.6004489 13.0448191,26.7700556 C13.2301811,26.9360519 13.475717,27.018043 13.7234272,26.9966613 C13.9774956,26.9999762 14.2219769,26.8996005 14.4006476,26.7186175 C14.5699527,26.5476206 14.6268503,26.2654061 14.6268503,25.9818015 C14.6302472,25.7103634 14.5311066,25.4476692 14.349301,25.2463757 C14.1638545,25.0805253 13.9183833,24.9985558 13.6706928,25.01977 C13.416655,25.0166158 13.172234,25.1169667 12.9934725,25.2978138 L12.9948602,25.3019844 Z M14.0106908,25.4145922 C14.081151,25.5951425 14.1196589,25.786614 14.124486,25.9804113 C14.168446,26.1701349 14.1484383,26.3691021 14.0675884,26.5462304 C14.0035515,26.6772198 13.8742892,26.7637251 13.7289782,26.7728361 C13.5921555,26.7906933 13.4582012,26.7235969 13.390368,26.6032293 C13.274826,26.4376201 13.21503,26.2394061 13.2196752,26.0374102 C13.2182049,25.8429561 13.2569502,25.6503042 13.3334704,25.4715911 C13.373847,25.321824 13.5185124,25.2250106 13.6720806,25.2449855 C13.8031617,25.2534711 13.9252657,25.3146319 14.0106908,25.4145922 L14.0106908,25.4145922 Z M11.1866262,24.8487731 L12.146947,24.962771 C12.3238346,24.9660689 12.4899018,25.0487401 12.5993524,25.1879865 C12.7256502,25.3019114 12.7701439,25.4813039 12.7117599,25.6411978 C12.7306305,25.7928363 12.6363871,25.9356335 12.4897204,25.9776308 C12.3773129,26.0916288 12.2121711,26.0916288 12.037315,26.0916288 L11.6987048,26.0346298 L11.6987048,26.5434499 C11.6987048,26.6004489 11.7556024,26.6004489 11.8680099,26.6004489 L11.8125,26.8270546 L10.963199,26.7700556 L11.0200966,26.4920118 C11.0756065,26.5476206 11.1325041,26.4920118 11.1894017,26.4920118 C11.2137496,26.400518 11.2327477,26.307679 11.2462993,26.213968 L11.3587068,25.4785422 L11.3587068,25.1393288 C11.3018092,25.1393288 11.2462993,25.0823298 11.1894017,25.0823298 L11.1866262,24.8487731 Z M11.7514391,25.8108046 L11.8083368,25.8108046 C11.9223564,25.8601487 12.0546224,25.8384271 12.146947,25.7551958 C12.2038446,25.7551958 12.2593544,25.6411978 12.2593544,25.5285901 C12.2710143,25.4486954 12.251099,25.3673959 12.2038446,25.3019844 C12.1476782,25.2339637 12.0656399,25.1926193 11.9776419,25.1879865 L11.8638466,25.1879865 C11.8083368,25.2449855 11.8083368,25.3019844 11.8083368,25.4145922 L11.7514391,25.8108046 Z M9.37839227,24.2815637 L10.338713,24.5596075 C10.5203378,24.5885647 10.6830579,24.6885708 10.7911184,24.8376513 C10.9035259,24.9516493 10.9035259,25.064257 10.9035259,25.2338637 C10.8767174,25.3573869 10.7926821,25.4606814 10.6773232,25.5119075 C10.5830797,25.5916178 10.461831,25.6319401 10.338713,25.6245152 L10.5649157,26.1903343 C10.5570656,26.2526044 10.578017,26.3150585 10.6218133,26.359941 C10.6773232,26.359941 10.7342208,26.41694 10.7911184,26.41694 L10.6773232,26.6435457 L10.1694079,26.473939 L9.89185855,25.5675162 L9.72255345,25.5119075 L9.61014597,25.7385132 C9.61014597,25.8511209 9.55324836,25.9637286 9.61014597,26.016557 C9.61014597,26.0735559 9.66704359,26.0735559 9.72255345,26.1305549 L9.66704359,26.3557704 L8.81913035,26.0777266 L8.87602796,25.8511209 C8.98843544,25.9081199 9.04533306,25.9081199 9.10084293,25.8511209 L9.21463816,25.6245152 L9.43667763,24.9029916 C9.43667763,24.7333849 9.4921875,24.6763859 9.43667763,24.6249478 C9.43197555,24.5642866 9.38348885,24.5163059 9.3228824,24.5123401 L9.37839227,24.2815637 Z M9.77390008,25.2435952 L9.8307977,25.3005942 L9.88630757,25.3005942 C10.0570004,25.3575932 10.1638569,25.3575932 10.2263055,25.3005942 C10.338713,25.3005942 10.3956106,25.2435952 10.4525082,25.1309875 C10.4554832,25.0515642 10.4357425,24.972943 10.3956106,24.9043818 C10.3304054,24.8353497 10.2539033,24.7779884 10.1694079,24.7347751 L10.0001028,24.7347751 C9.94320518,24.7903839 9.88630757,24.8473828 9.88630757,24.9043818 L9.77390008,25.2435952 Z M7.79636102,23.8269621 C7.57015831,23.8839611 7.40085321,24.0535678 7.23154811,24.3371725 C7.1119043,24.5829233 7.07257402,24.860185 7.11914062,25.1295973 C7.24186019,25.3571975 7.41810065,25.5514073 7.63260691,25.6954164 C7.8641681,25.7957053 8.12250365,25.8157632 8.36672492,25.7524154 C8.6192612,25.6408794 8.82082024,25.4384651 8.93153783,25.185206 C9.07401983,24.968151 9.11553325,24.6998617 9.04533306,24.4497802 C8.99305483,24.1813459 8.79717046,23.9637247 8.53603002,23.8839611 C8.31275688,23.7539596 8.04251428,23.7329772 7.80191201,23.8269621 L7.79636102,23.8269621 Z M8.64427426,24.3927813 C8.63310334,24.5925498 8.57510098,24.7868705 8.47496916,24.9599906 C8.42603767,25.1498579 8.30370848,25.3124204 8.13497122,25.4118117 C8.02857778,25.5129873 7.87001159,25.5358392 7.7394634,25.4688107 C7.63321279,25.3800273 7.55509008,25.2621514 7.51464844,25.1295973 C7.5301853,24.9310588 7.58791023,24.7381416 7.68395354,24.5637782 C7.76676461,24.3923508 7.8817238,24.2384842 8.02256373,24.1105668 C8.19186883,24.0535678 8.30011308,23.9965689 8.41807155,24.1105668 C8.54867559,24.1395441 8.64229414,24.2546181 8.64427426,24.3886106 L8.64427426,24.3927813 Z M7.23154811,23.375141 L7.34395559,23.261143 L7.45775082,23.375141 L7.23154811,24.0507874 L7.00534539,23.9937884 C7.05214826,23.8480263 7.07144311,23.6948069 7.06224301,23.5419673 C7.06222223,23.4248414 6.99688544,23.3175411 6.89293791,23.2639235 C6.77914268,23.1513158 6.6667352,23.1513158 6.4974301,23.2083147 C6.32136484,23.2828981 6.16608654,23.3993257 6.04502467,23.5475281 C5.93261719,23.7171349 5.81882196,23.8867416 5.81882196,24.0563483 C5.81483031,24.2068428 5.87667457,24.3515724 5.98812706,24.4525607 C6.09144227,24.5157287 6.20766805,24.554698 6.328125,24.5665586 C6.46751821,24.5630359 6.60368498,24.5237883 6.72363281,24.4525607 L6.8360403,24.6791664 C6.67294147,24.7968936 6.46689252,24.837974 6.27122738,24.7917741 C6.08870477,24.787948 5.91162175,24.7288152 5.76331209,24.6221674 C5.59261924,24.4525607 5.42331414,24.225955 5.42331414,23.9993493 C5.41972113,23.7364889 5.49886667,23.4791725 5.64951686,23.2639235 C5.87571957,23.0373178 6.04502467,22.8677111 6.328125,22.8677111 C6.56792208,22.814909 6.81856357,22.877681 7.00534539,23.0373178 C7.06224301,23.0373178 7.11914063,23.0943168 7.17465049,23.1513158 C7.17465049,23.2083147 7.23154811,23.2639235 7.23154811,23.3779214 L7.23154811,23.375141 Z M4.46299342,20.714262 L5.02780633,21.394079 C5.2153399,21.5918184 5.31539501,21.8569356 5.30535567,22.1295048 C5.25095044,22.3773344 5.11086636,22.5979291 4.90984786,22.7523229 C4.70750122,22.9321259 4.44620699,23.0310899 4.17572985,23.0303706 C3.90366961,22.9640641 3.66349279,22.804153 3.49712171,22.5785456 L2.98920641,21.8987285 L3.15851151,21.7861208 C3.20387821,21.828966 3.26593378,21.8493483 3.32781661,21.8417295 L3.55401933,21.7291218 L4.11883224,21.2203017 C4.28813734,21.1633027 4.34503495,21.050695 4.34503495,20.993696 C4.34089928,20.9499252 4.3206103,20.9092749 4.28813734,20.879698 L4.46299342,20.714262 Z M3.78577303,22.1295048 C3.6719778,22.1865038 3.61646793,22.2421126 3.61646793,22.2991116 C3.62049194,22.342616 3.64023071,22.3831526 3.6719778,22.4131095 C3.77618865,22.528859 3.91489353,22.6078422 4.06748561,22.638325 C4.2478047,22.5874802 4.42015945,22.5116775 4.57956414,22.4131095 C4.80437911,22.2421126 4.91817434,22.0725059 4.91817434,21.9598981 C4.97025208,21.7994705 4.92602773,21.6233385 4.80437911,21.5066868 C4.80437911,21.451078 4.74886924,21.451078 4.69197163,21.451078 C4.63234108,21.4578515 4.57472451,21.4767758 4.52266653,21.5066868 L3.78577303,22.1295048 Z M3.6719778,20.0358351 C3.71577414,20.0807177 3.7367255,20.1431718 3.72887541,20.2054419 L3.5026727,20.4362182 L2.88096217,20.8880393 C2.79504073,20.9404935 2.7013616,20.9789704 2.60341283,21.0020373 L2.4896176,20.8880393 L2.26341488,21.0590363 L2.77549342,21.7332924 L3.00169613,21.6206847 C2.97131655,21.568658 2.95194903,21.5109251 2.94479852,21.451078 C2.94479852,21.394079 3.057206,21.2800811 3.17100123,21.2244723 L3.79271176,20.771261 C3.90511924,20.714262 3.96201686,20.6586532 4.01752673,20.6586532 C4.0730366,20.6586532 4.13132196,20.714262 4.18821957,20.771261 L4.35752467,20.6016542 L3.84822163,19.9218372 L3.6719778,20.0358351 Z M2.71165707,18.3369876 C2.75115932,18.4058053 2.77085382,18.4842424 2.76855469,18.5635933 C2.71165707,18.5635933 2.65475946,18.6205923 2.49100535,18.7332 L1.86929482,19.0738036 C1.69998972,19.1294124 1.64447985,19.1864114 1.59174548,19.1864114 C1.5390111,19.1864114 1.47795025,19.1294124 1.42244038,19.0738036 L1.24897204,19.1850212 L1.64447985,19.920447 L1.86929482,19.8078392 C1.82669537,19.7622909 1.80637594,19.7002063 1.81378495,19.6382325 C1.88846829,19.5565884 1.98469313,19.4977867 2.09133429,19.4686258 L2.26063939,19.3546279 L2.37443462,19.5242346 L1.92202919,20.3736583 L2.14823191,20.8824785 L2.37443462,20.7698707 C2.33081578,20.7248796 2.30989388,20.6625133 2.31753701,20.600264 C2.31753701,20.543265 2.37443462,20.4862661 2.37443462,20.4306573 L2.65198396,19.8648382 C2.76577919,19.9774459 2.82267681,20.0344449 2.92953331,20.0344449 C3.04496312,20.0714194 3.17111616,20.0501838 3.2681435,19.9774459 C3.42666204,19.9403811 3.54052608,19.8012195 3.54569285,19.6382325 C3.52179172,19.4590089 3.46435215,19.2859116 3.37638775,19.1280222 C2.94063528,18.2341114 2.92398232,18.2229897 2.92398232,18.2229897 L2.71165707,18.3369876 Z M2.8254523,19.0738036 C2.87730258,19.0431854 2.93497237,19.0237701 2.9947574,19.0168047 C3.05026727,19.0168047 3.10716488,19.0738036 3.1640625,19.1294124 C3.20897018,19.2148112 3.22870388,19.3112446 3.22096012,19.4074562 C3.1640625,19.4644552 3.1640625,19.5200639 3.05026727,19.5770629 C2.98614268,19.6340981 2.8895769,19.6340981 2.8254523,19.5770629 C2.70684561,19.514838 2.61001724,19.4178371 2.54790296,19.2990191 L2.54790296,19.2434104 L2.49100535,19.2434104 L2.8254523,19.0738036 Z M2.65475946,17.7711685 L2.71165707,17.7711685 L2.76855469,17.8851665 L2.25925164,18.2813789 L2.08994655,18.1117722 C2.19868998,18.0125385 2.29221458,17.8977668 2.36749589,17.7711685 L2.36749589,17.4319551 C2.31397362,17.3278224 2.20686413,17.2623692 2.08994655,17.2623484 C1.92064145,17.2053494 1.75133635,17.2623484 1.52513363,17.3193474 C1.29893092,17.4319551 1.12962582,17.4889541 1.01721834,17.5973911 C0.939289829,17.7139974 0.918363533,17.8597198 0.960320724,17.9936035 C1.01721834,18.0506025 1.07411595,18.1632103 1.12962582,18.1632103 C1.21416934,18.2176256 1.32263165,18.2176256 1.40717516,18.1632103 C1.44962859,18.1572327 1.48903775,18.1377367 1.51958265,18.1076015 C1.54638115,18.087376 1.56214063,18.0557154 1.56214063,18.022103 C1.56214063,17.9884907 1.54638115,17.9568301 1.51958265,17.9366046 L1.74578536,17.8239968 L2.0233347,18.5594226 L1.79713199,18.6734206 C1.74023438,18.6164216 1.74023438,18.5594226 1.68333676,18.5594226 L1.46823602,18.5594226 L1.01721834,18.7860283 L0.903423109,18.5079845 L1.01721834,18.3939866 C0.960320724,18.3369876 0.84791324,18.2813789 0.791015625,18.2243799 C0.721118792,18.1698816 0.679755913,18.0864969 0.678608141,17.9977742 C0.58085485,17.7958336 0.602198952,17.5563538 0.73411801,17.3749561 C0.872867025,17.1354021 1.09383153,16.9545604 1.35582854,16.866136 C1.63337788,16.809137 1.86513158,16.7535283 2.08994655,16.866136 C2.32334468,16.9582993 2.50788565,17.1436727 2.59924959,17.3777366 C2.59924959,17.4347355 2.65475946,17.4917345 2.65475946,17.5473433 L2.65475946,17.773949 L2.65475946,17.7711685 Z M19.6602076,23.5447477 C19.7056532,23.5009991 19.7683415,23.4800658 19.8309005,23.4877487 L20.0557155,23.7143544 L20.4512233,24.3371725 C20.5081209,24.5067792 20.5650185,24.5637782 20.5650185,24.6152163 C20.5650185,24.6666544 20.5081209,24.7292142 20.4512233,24.784823 L20.5650185,24.9558199 L21.2991365,24.5026085 L21.186729,24.2760029 C21.1417115,24.3195242 21.0795417,24.3404546 21.0174239,24.3330018 C20.9605263,24.3330018 20.9036287,24.2190039 20.8467311,24.1063962 L20.4512233,23.4946998 C20.3665207,23.4225741 20.307173,23.3251095 20.2819182,23.216656 C20.3388158,23.1596571 20.3388158,23.1026581 20.3957134,23.1026581 L20.2819182,22.8760524 L19.5478002,23.3292638 L19.6602076,23.5447477 Z" id="形状" fill="#037674"></path>
                <path d="M23.3932463,13.6394379 C23.3932463,18.3133539 20.0806949,22.2045767 15.7009663,23.197193 C14.2202405,22.6786413 12.9254729,21.4816628 11.9540502,19.8425947 C12.2593544,19.8583505 12.5678968,19.8662284 12.8796772,19.8662284 C17.2871608,19.8662284 21.0160362,18.3939866 22.4273746,16.3573159 C20.4498355,17.9407752 17.2927118,19.0168047 13.7275905,19.0168047 C12.9647287,19.0170241 12.2026519,18.9678002 11.4461349,18.8694415 C11.2170518,18.3703494 11.020957,17.8567153 10.859118,17.3318593 C11.9402919,17.4812634 13.0326067,17.5338363 14.1230983,17.4889541 C18.4792352,17.311006 22.0998664,15.6955717 23.3918586,13.5824389 L23.3918586,13.6394379 L23.3932463,13.6394379 Z M13.8774671,23.4349204 C12.5035979,22.9274905 11.3059725,21.5748075 10.4858141,19.7119141 C9.8523006,19.6305301 9.22399688,19.5126293 8.60402961,19.3587985 C9.04094145,20.5052515 9.68760035,21.559948 10.5107936,22.4687183 C9.46165707,21.8222665 8.55268298,20.6614337 7.88934005,19.1627777 C6.45718544,18.7276391 5.24429482,18.1159428 4.36030016,17.3874681 C5.90800017,21.0711642 9.51600408,23.4603089 13.505551,23.4432617 C13.6290604,23.4432617 13.7511822,23.4432617 13.8733039,23.4349204 L13.8774671,23.4349204 Z M3.69556949,14.9226099 C3.11448741,10.492217 5.60344339,6.23033956 9.74336965,4.56686917 C7.93929893,6.23513188 6.72363281,9.49380504 6.72363281,13.2432255 C6.72278555,14.0523404 6.78169428,14.8604095 6.89987664,15.6608162 C6.04818608,15.3265655 5.24715252,14.8750352 4.51989104,14.3192549 C5.07498972,15.063022 5.92567845,15.7094738 6.99285567,16.2196842 C7.08866429,16.7387644 7.21329238,17.2520886 7.36615954,17.7572663 C5.74527138,17.0399134 4.46438117,16.0570286 3.69556949,14.9226099 L3.69556949,14.9226099 Z M13.1322471,3.84395533 C9.98344984,4.92415543 7.63260691,9.07812958 7.63260691,14.0412111 C7.63260691,14.6867305 7.67251098,15.3316304 7.75195312,15.9722252 C8.33320845,16.1545046 8.92562548,16.2989255 9.52549342,16.4045833 C9.38930026,15.5461437 9.32108802,14.6782586 9.32149465,13.8090446 C9.32149465,9.56331598 10.9035259,5.94179568 13.1072677,4.58355179 C11.3559313,6.45200603 10.2263055,9.5647062 10.2263055,13.01801 C10.221769,14.2135723 10.3615582,15.4052979 10.6426295,16.5672389 C11.5156553,16.6581841 12.3943299,16.6823512 13.2710218,16.6395303 C17.9727076,16.4907769 21.8930921,14.4318627 23.2114515,11.7918369 C22.342722,7.25277213 18.2905016,3.83700423 13.5027755,3.83700423 C13.3806538,3.83700423 13.2585321,3.83700423 13.1377981,3.83700423 L13.1322471,3.84395533 Z M10.0639391,18.6289336 C9.42168991,18.4886347 8.78935977,18.3061212 8.17105263,18.0825776 C8.03246416,17.5885472 7.92081675,17.0873273 7.83660567,16.5811411 C8.42985304,16.8032505 9.03834525,16.9821277 9.65732936,17.1163754 C9.76435839,17.6278218 9.90011077,18.1328106 10.0639391,18.6289336 L10.0639391,18.6289336 Z" id="形状" fill="url(#radialGradient-1)"></path>
                <path d="M24.2592002,13.6394379 C24.2582208,16.4715844 23.1222792,19.18477 21.1062397,21.1702538 C16.8916784,25.3410728 10.1145222,25.3472656 5.89237253,21.184156 C3.87926297,19.1918315 2.74624212,16.4749908 2.74624212,13.640133 C2.74624212,10.8052752 3.87926297,8.08843441 5.89237253,6.09610998 C10.1123743,1.92774326 16.8938359,1.93394005 21.1062397,6.11001217 C23.12299,8.09444233 24.2592002,10.8075217 24.2592002,13.6394379 L24.2592002,13.6394379 Z M23.9885896,13.6394379 C23.9883033,10.8797467 22.8812356,8.23588377 20.9161184,6.30186239 C16.8063351,2.23677783 10.1998625,2.23058619 6.08249383,6.2879602 C4.12092068,8.2298015 3.0169503,10.8774824 3.0169503,13.640133 C3.0169503,16.4027836 4.12092068,19.0504645 6.08249383,20.9923058 C10.1998625,25.0496798 16.8063351,25.0434881 20.9161184,20.9784036 C22.8815789,19.0440443 23.9885896,16.3996112 23.9885896,13.6394379 Z" id="形状" fill="#037674"></path>
            </g>
        </g>
    </g>
</svg>